<svg width="94" height="79" viewBox="0 0 94 79" fill="none" xmlns="http://www.w3.org/2000/svg">
<path d="M84.9844 41.9667L82.627 62.0047L81.5157 71.4511C81.1788 74.3138 79.195 76.6542 76.3125 76.6542H17.3438C14.4612 76.6542 12.4774 74.3138 12.1406 71.4511L11.0031 61.7824L8.67188 41.9667" fill="#FFBE1D"/>
<path d="M29.4844 54.1073V62.7792C29.4844 64.7009 27.9373 66.248 26.0156 66.248C24.0939 66.248 22.5469 64.7009 22.5469 62.7792V61.0448L29.4844 54.1073ZM46.8282 52.373C48.7498 52.373 50.2969 53.92 50.2969 55.8417V62.7792C50.2969 64.7009 48.7498 66.248 46.8282 66.248C44.9065 66.248 43.3594 64.7009 43.3594 62.7792V55.8417C43.3594 53.92 44.9065 52.373 46.8282 52.373ZM71.1094 61.7388V62.7792C71.1094 64.7009 69.5623 66.248 67.6406 66.248C65.7189 66.248 64.1719 64.7009 64.1719 62.7792V54.1073L71.1094 61.7388ZM31.3904 41.9671H16.9099H6.93715C4.0548 41.9671 1.73438 39.647 1.73438 36.7644V36.7636C1.73438 33.8814 4.0548 31.5609 6.93715 31.5609H86.7191C89.6015 31.5609 91.9219 33.8814 91.9219 36.7636V36.7644C91.9219 39.647 89.6015 41.9671 86.7191 41.9671H76.7464H62.2658H31.3904ZM52.2931 41.9671H46.8281H41.3631" fill="#FFBE1D"/>
<path d="M42.3544 36.0343C43.7133 37.3931 43.7133 39.581 42.3544 40.9398L12.859 70.4353C11.5001 71.7941 9.31225 71.7941 7.95342 70.4353C6.59458 69.0764 6.59458 66.8886 7.95342 65.5297L37.4489 36.0343C38.8077 34.6754 40.9956 34.6754 42.3544 36.0343Z" fill="#FFBE1D"/>
<path d="M51.3016 36.0343C49.9427 37.3931 49.9427 39.581 51.3016 40.9398L80.797 70.4353C82.1559 71.7941 84.3437 71.7941 85.7026 70.4353C87.0614 69.0764 87.0614 66.8886 85.7026 65.5297L56.2071 36.0343C54.8483 34.6754 52.6604 34.6754 51.3016 36.0343Z" fill="#FFBE1D"/>
<path d="M46.82 1.73183C44.4867 1.73183 42.3983 2.90949 40.6169 4.69416C38.8355 6.4771 37.3276 8.88068 36.0967 11.4691C33.6348 16.6472 32.2594 21.7526 32.2594 26.3671C32.2594 28.2187 32.4363 29.9682 32.7959 31.56H60.8603C61.2199 29.9682 61.3969 28.2187 61.3969 26.3671C61.3969 21.7526 60.0214 16.6472 57.5596 11.4691C56.3286 8.88068 54.8208 6.4771 53.0394 4.69416C51.258 2.90949 49.1695 1.73183 46.8363 1.73183H46.8189H46.82Z" fill="#FFFEFE"/>
<path d="M26.0075 10.2542C24.3409 10.2542 22.8492 11.11 21.5767 12.4015C20.3043 13.6911 19.2284 15.4223 18.3492 17.2951C16.5907 21.0406 15.6094 24.7432 15.6094 28.0816C15.6094 29.3338 15.7676 30.4809 15.9996 31.56H32.8203C32.4532 29.9665 32.2594 28.2277 32.2594 26.3671C32.2594 23.5695 32.824 20.5788 33.7715 17.5114C33.7369 17.4421 33.716 17.3657 33.682 17.2963C32.8028 15.4239 31.7269 13.6932 30.4545 12.4032C29.182 11.1117 27.6903 10.2559 26.0237 10.2559H26.0063L26.0075 10.2542ZM67.6325 10.2542C65.9659 10.2542 64.4742 11.11 63.2017 12.4015C61.9293 13.6911 60.8534 15.4223 59.9742 17.2951C59.9395 17.3679 59.918 17.4407 59.8847 17.5136C60.8322 20.5803 61.3968 23.5705 61.3968 26.3683C61.3968 28.2269 61.2019 29.9703 60.8358 31.5617H77.6647C77.8961 30.484 78.0468 29.3337 78.0468 28.0832C78.0468 24.7449 77.0655 21.0427 75.307 17.2968C74.4278 15.424 73.3519 13.6932 72.0795 12.4032C70.807 11.1124 69.3153 10.2559 67.6487 10.2559H67.6313L67.6325 10.2542Z" fill="#FFFEFE"/>
<path d="M8.6109 40.2091C8.36939 40.2175 8.1323 40.2765 7.91482 40.3819C7.69734 40.4872 7.50428 40.6367 7.348 40.821C7.19173 41.0053 7.0757 41.2201 7.00734 41.4519C6.93898 41.6837 6.91981 41.9274 6.95105 42.1671L9.28162 61.9837C9.2986 62.2174 9.36278 62.4453 9.47027 62.6535C9.57776 62.8618 9.72634 63.0458 9.90704 63.1951C10.0877 63.3443 10.2968 63.4558 10.5216 63.522C10.7464 63.5882 10.9823 63.6079 11.2151 63.5804C11.4478 63.5529 11.6726 63.4787 11.8758 63.3619C12.079 63.2452 12.2564 63.0885 12.3974 62.9012C12.5383 62.714 12.6399 62.5 12.6959 62.2724C12.7519 62.0449 12.7612 61.8084 12.7233 61.5772L10.3927 41.7673C10.3483 41.3303 10.1396 40.9264 9.80888 40.6372C9.47816 40.348 9.05001 40.1949 8.6109 40.2091ZM84.9911 40.2091C84.5613 40.2086 84.1466 40.3679 83.8274 40.6558C83.5082 40.9437 83.3073 41.3397 83.2635 41.7673L80.9059 61.8007C80.8679 62.032 80.8773 62.2684 80.9333 62.496C80.9893 62.7236 81.0908 62.9376 81.2318 63.1248C81.3727 63.312 81.5502 63.4687 81.7534 63.5855C81.9566 63.7023 82.1813 63.7769 82.4141 63.8044C82.6468 63.8319 82.8827 63.8118 83.1075 63.7455C83.3323 63.6793 83.5414 63.5683 83.7221 63.4191C83.9028 63.2698 84.0514 63.0853 84.1589 62.8771C84.2664 62.6688 84.3306 62.441 84.3475 62.2072L86.7052 42.1671C86.7369 41.923 86.7162 41.6751 86.6447 41.4396C86.5731 41.2041 86.4522 40.9863 86.2901 40.8011C86.128 40.6159 85.9283 40.4674 85.7044 40.3654C85.4804 40.2633 85.2373 40.21 84.9911 40.2091ZM12.0797 69.6935C11.8381 69.7019 11.6011 69.7609 11.3836 69.8662C11.1661 69.9716 10.973 70.121 10.8168 70.3053C10.6605 70.4897 10.5444 70.7045 10.4761 70.9363C10.4077 71.168 10.3886 71.4118 10.4198 71.6514C10.8361 75.1903 13.5224 78.3857 17.3438 78.3857H76.3125C80.1338 78.3857 82.8201 75.1903 83.2365 71.6514C83.2752 71.4196 83.2664 71.182 83.2106 70.9536C83.1548 70.7253 83.0531 70.511 82.9118 70.3231C82.7706 70.1353 82.5925 69.9777 82.3886 69.8607C82.1847 69.7438 81.9592 69.6698 81.7257 69.6427C81.4921 69.6156 81.2556 69.6361 81.0303 69.7032C80.805 69.7704 80.5957 69.8826 80.4151 70.0331C80.2345 70.1836 80.0864 70.3694 79.9798 70.5789C79.8732 70.7884 79.8102 71.0171 79.7948 71.2517C79.5375 73.4384 78.2563 74.9169 76.3125 74.9169H17.3438C15.3999 74.9169 14.1187 73.4384 13.8615 71.2517C13.817 70.8146 13.6084 70.4108 13.2776 70.1216C12.9469 69.8324 12.5188 69.6793 12.0797 69.6935ZM29.4573 52.3497C28.9985 52.3569 28.5613 52.5455 28.2413 52.8744C27.9213 53.2032 27.7447 53.6457 27.75 54.1044V62.7763C27.75 63.7673 27.0065 64.5107 26.0156 64.5107C25.0248 64.5107 24.2813 63.7673 24.2813 62.7763V61.0419C24.2845 60.8121 24.242 60.5837 24.1563 60.3704C24.0706 60.1571 23.9434 59.9633 23.782 59.7996C23.6207 59.6359 23.4284 59.5059 23.2163 59.4172C23.0043 59.3285 22.7767 59.2826 22.5469 59.2826C22.317 59.2826 22.0895 59.3285 21.8774 59.4172C21.6654 59.5059 21.4731 59.6359 21.3117 59.7996C21.1504 59.9633 21.0231 60.1571 20.9374 60.3704C20.8517 60.5837 20.8093 60.8121 20.8125 61.0419V62.7763C20.8125 65.629 23.1631 67.9794 26.0156 67.9794C28.8682 67.9794 31.2188 65.629 31.2188 62.7763V54.1044C31.2214 53.8727 31.1777 53.6428 31.09 53.4282C31.0024 53.2137 30.8726 53.0189 30.7084 52.8553C30.5442 52.6918 30.3489 52.5627 30.134 52.4759C29.9191 52.3891 29.689 52.3461 29.4573 52.3497ZM46.8281 50.6357C43.9756 50.6357 41.625 52.9865 41.625 55.8388V62.7763C41.625 65.629 43.9756 67.9794 46.8281 67.9794C49.6807 67.9794 52.0312 65.629 52.0312 62.7763V55.8388C52.0312 52.9865 49.6807 50.6357 46.8281 50.6357ZM46.8281 54.1044C47.819 54.1044 48.5625 54.8481 48.5625 55.8388V62.7763C48.5625 63.7673 47.819 64.5107 46.8281 64.5107C45.8373 64.5107 45.0938 63.7673 45.0938 62.7763V55.8388C45.0938 54.8481 45.8373 54.1044 46.8281 54.1044ZM64.1448 52.3497C63.686 52.3569 63.2488 52.5455 62.9288 52.8744C62.6088 53.2032 62.4322 53.6457 62.4375 54.1044V62.7763C62.4375 65.629 64.7881 67.9794 67.6406 67.9794C70.4932 67.9794 72.8438 65.629 72.8438 62.7763V61.7398C72.847 61.5099 72.8045 61.2819 72.7188 61.0686C72.6331 60.8553 72.5059 60.6611 72.3445 60.4974C72.1832 60.3337 71.9909 60.2038 71.7788 60.115C71.5668 60.0263 71.3392 59.9808 71.1094 59.9808C70.8795 59.9808 70.652 60.0263 70.4399 60.115C70.2279 60.2038 70.0356 60.3337 69.8742 60.4974C69.7128 60.6611 69.5856 60.8553 69.4999 61.0686C69.4142 61.2819 69.3717 61.5099 69.375 61.7398V62.7763C69.375 63.7673 68.6315 64.5107 67.6406 64.5107C66.6498 64.5107 65.9062 63.7673 65.9062 62.7763V54.1044C65.9089 53.8727 65.8652 53.6428 65.7775 53.4282C65.6899 53.2137 65.5601 53.0189 65.3959 52.8553C65.2317 52.6918 65.0364 52.5627 64.8215 52.4759C64.6066 52.3891 64.3765 52.3461 64.1448 52.3497Z" fill="white" fill-opacity="0.4"/>
<path d="M6.9375 29.8231C3.12424 29.8231 0 32.9478 0 36.7606C0 40.5738 3.12438 43.6909 6.9375 43.6909H16.9102H31.3881C31.6179 43.6942 31.8461 43.6517 32.0594 43.566C32.2727 43.4803 32.4668 43.3531 32.6305 43.1917C32.7941 43.0303 32.9241 42.838 33.0128 42.626C33.1015 42.4139 33.1472 42.1864 33.1472 41.9565C33.1472 41.7267 33.1015 41.4991 33.0128 41.2871C32.9241 41.0751 32.7941 40.8828 32.6305 40.7214C32.4668 40.56 32.2727 40.4328 32.0594 40.3471C31.8461 40.2614 31.6179 40.2189 31.3881 40.2222H16.9102H6.9375C4.9859 40.2222 3.46875 38.7121 3.46875 36.7606C3.46875 34.8094 4.98604 33.2919 6.9375 33.2919H86.7188C88.6702 33.2919 90.1875 34.8094 90.1875 36.7606C90.1875 38.7121 88.6703 40.2222 86.7188 40.2222H76.7461H62.2681C62.0383 40.2189 61.8101 40.2614 61.5969 40.3471C61.3836 40.4328 61.1895 40.56 61.0258 40.7214C60.8621 40.8828 60.7322 41.0751 60.6434 41.2871C60.5547 41.4991 60.509 41.7267 60.509 41.9565C60.509 42.1864 60.5547 42.4139 60.6434 42.626C60.7322 42.838 60.8621 43.0303 61.0258 43.1917C61.1895 43.3531 61.3836 43.4803 61.5969 43.566C61.8101 43.6517 62.0383 43.6942 62.2681 43.6909H76.7461H86.7188C90.5319 43.6909 93.6562 40.5738 93.6562 36.7606C93.6562 32.9478 90.532 29.8231 86.7188 29.8231H6.9375ZM41.3608 40.2294C41.131 40.2261 40.9028 40.2686 40.6895 40.3543C40.4762 40.44 40.2821 40.5672 40.1184 40.7286C39.9548 40.89 39.8248 41.0823 39.7361 41.2943C39.6474 41.5063 39.6017 41.7339 39.6017 41.9637C39.6017 42.1936 39.6474 42.4211 39.7361 42.6332C39.8248 42.8452 39.9548 43.0375 40.1184 43.1989C40.2821 43.3603 40.4762 43.4875 40.6895 43.5732C40.9028 43.6589 41.131 43.7014 41.3608 43.6981H46.8281H52.2955C52.5253 43.7014 52.7535 43.6589 52.9667 43.5732C53.18 43.4875 53.3741 43.3603 53.5378 43.1989C53.7015 43.0375 53.8314 42.8452 53.9202 42.6332C54.0089 42.4211 54.0546 42.1936 54.0546 41.9637C54.0546 41.7339 54.0089 41.5063 53.9202 41.2943C53.8314 41.0823 53.7015 40.89 53.5378 40.7286C53.3741 40.5672 53.18 40.44 52.9667 40.3543C52.7535 40.2686 52.5253 40.2261 52.2955 40.2294H46.8281H41.3608Z" fill="#02020C"/>
<path d="M46.8214 0C43.9043 0 41.3799 1.47422 39.3893 3.46875C37.4029 5.45669 35.8197 8.01627 34.5317 10.7247C31.9876 16.0756 30.5277 21.409 30.5277 26.3679C30.5277 28.3302 30.7106 30.2044 31.1036 31.9437C31.1912 32.3271 31.4066 32.6697 31.7144 32.9146C32.0221 33.1595 32.404 33.2925 32.7973 33.2919H60.8589C61.2523 33.2925 61.6341 33.1595 61.9419 32.9146C62.2496 32.6697 62.465 32.3271 62.5527 31.9437C62.9455 30.2044 63.1285 28.3302 63.1285 26.3679C63.1285 21.409 61.6687 16.0756 59.1246 10.7247C57.8365 8.01627 56.2534 5.45669 54.267 3.46875C52.2763 1.47422 49.7519 0 46.8349 0H46.8214H46.8214ZM46.8214 3.46875H46.8349C48.5843 3.46875 50.2423 4.34611 51.8144 5.92126C53.3909 7.4992 54.8207 9.74679 55.9945 12.2151C58.3742 17.2202 59.6598 22.0982 59.6598 26.3679C59.6598 27.6187 59.4771 28.7162 59.3075 29.8231H34.3487C34.1791 28.7162 33.9964 27.6187 33.9964 26.3679C33.9964 22.0982 35.282 17.2202 37.6617 12.2151C38.8355 9.74679 40.2653 7.4992 41.8418 5.92126C43.414 4.34611 45.0718 3.46875 46.8213 3.46875H46.8214Z" fill="#02020C"/>
<path d="M26.0089 8.52289C25.9019 8.5246 25.7953 8.53625 25.6904 8.55761C25.6895 8.55761 25.8724 8.52289 25.9885 8.52289C23.7401 8.52289 21.8185 9.68466 20.345 11.1786C18.871 12.6726 17.7173 14.558 16.7814 16.5511C14.9416 20.4771 13.875 24.4038 13.875 28.082C13.875 29.4803 14.0507 30.7558 14.3018 31.9234C14.3857 32.3117 14.6003 32.6596 14.9098 32.9087C15.2194 33.1578 15.605 33.2931 16.0023 33.2919H32.8176C33.0784 33.2923 33.336 33.2337 33.5711 33.1209C33.8062 33.008 34.0128 32.8436 34.1756 32.6398C34.3383 32.4361 34.453 32.1984 34.5112 31.9441C34.5693 31.6899 34.5694 31.4256 34.5114 31.1714C34.1762 29.7166 33.9965 28.1082 33.9965 26.368C33.9965 23.8039 34.5149 20.9704 35.426 18.0213C35.559 17.5951 35.5226 17.1341 35.3243 16.7341C35.3837 16.852 35.3379 16.734 35.2498 16.5571H35.2429C34.3078 14.5674 33.1578 12.6833 31.686 11.1913C30.2109 9.69562 28.2868 8.54114 26.0358 8.53559C26.041 8.53489 26.0524 8.53559 26.0561 8.53559C26.0448 8.53548 26.0335 8.53548 26.0222 8.53559C26.0177 8.53557 26.0132 8.53557 26.0086 8.53559L26.0089 8.52289ZM26.3544 11.9578L26.0224 11.9925C27.0953 11.9925 28.1545 12.5369 29.2202 13.6185C30.2397 14.6518 31.1717 16.1745 31.9708 17.8252C31.1361 20.7237 30.5277 23.6052 30.5277 26.3684C30.5277 27.5946 30.7455 28.6893 30.9003 29.8236H17.5402C17.4649 29.2499 17.3438 28.6998 17.3438 28.082C17.3438 25.0836 18.2411 21.607 19.9182 18.0348C20.7408 16.2824 21.7403 14.7026 22.8111 13.6176C23.8769 12.5357 24.9361 11.9916 26.0089 11.9916H25.975C26.0323 11.9916 26.3531 11.9578 26.3544 11.9578ZM67.6474 8.52289C65.2335 8.52289 63.2925 9.85814 61.8616 11.4225C60.4308 12.9869 59.368 14.8483 58.4674 16.436C58.4457 16.4734 58.4253 16.5118 58.4064 16.5507C58.2984 16.7762 58.2737 16.8627 58.3048 16.7933C58.1296 17.1812 58.103 17.6202 58.2303 18.0264C59.1413 20.9752 59.6598 23.8018 59.6598 26.3663C59.6598 28.1038 59.4791 29.7166 59.1449 31.1697C59.0857 31.4244 59.0848 31.689 59.1424 31.9441C59.2 32.1993 59.3145 32.4382 59.4774 32.6428C59.6403 32.8474 59.8473 33.0127 60.0831 33.1259C60.3188 33.2392 60.5771 33.2976 60.8386 33.297H77.6675C78.0646 33.2963 78.4494 33.1595 78.7577 32.9091C79.0659 32.6588 79.279 32.3102 79.3612 31.9217C79.6133 30.7493 79.7813 29.472 79.7813 28.082C79.7813 24.4038 78.7147 20.4773 76.8748 16.5579C75.939 14.5648 74.7851 12.6798 73.3112 11.1854C71.8323 9.68519 69.9082 8.52289 67.6474 8.52289ZM67.6474 11.9916C68.7198 11.9916 69.7792 12.5361 70.8452 13.6176C71.9162 14.7033 72.9154 16.2824 73.738 18.0348C75.4152 21.6073 76.3125 25.0836 76.3125 28.082C76.3125 28.7054 76.1899 29.2541 76.116 29.83H62.7559C62.9114 28.6932 63.1286 27.5959 63.1286 26.368C63.1286 23.6107 62.5167 20.736 61.6855 17.8451C62.522 16.3841 63.4281 14.8541 64.4226 13.7667C65.4912 12.5984 66.4956 11.9916 67.6474 11.9916ZM43.584 34.8078C41.5669 32.7907 38.2427 32.7907 36.2256 34.8078L6.73004 64.3032C4.71299 66.3203 4.71299 69.6449 6.73004 71.6616C8.74708 73.6787 12.0713 73.6787 14.0884 71.6616L43.584 42.1658C45.601 40.1487 45.601 36.8249 43.584 34.8078ZM41.1312 37.2603C41.8318 37.961 41.8318 39.0126 41.1312 39.7133L11.6356 69.2086C10.935 69.9093 9.88345 69.9093 9.18281 69.2086C8.48218 68.5083 8.48218 67.4564 9.18281 66.7557L38.6784 37.2603C39.379 36.5596 40.4305 36.5596 41.1312 37.2603ZM50.0752 34.8125C52.0922 32.7954 55.4165 32.7954 57.4335 34.8125L86.9243 64.3032C88.9414 66.3203 88.9414 69.6445 86.9243 71.6616C84.9073 73.6783 81.583 73.6783 79.566 71.6616L50.0752 42.1709C48.0581 40.1538 48.0581 36.8295 50.0752 34.8125ZM52.528 37.2654C51.8273 37.9661 51.8273 39.0172 52.528 39.7179L82.0188 69.2086C82.7194 69.9093 83.7709 69.9093 84.4715 69.2086C85.1722 68.5083 85.1722 67.4564 84.4715 66.7557L54.9807 37.2654C54.2801 36.5647 53.2286 36.5647 52.528 37.2654ZM44.8973 8.31964C44.4454 8.32323 44.0127 8.50318 43.6913 8.82098C42.563 9.90705 41.7037 11.2565 41.0085 12.6624C40.6687 13.3488 40.366 14.0351 40.1006 14.7219C40.0183 14.9346 39.9787 15.1613 39.984 15.3892C39.9894 15.6172 40.0395 15.8421 40.1317 16.0506C40.2239 16.2592 40.3562 16.4475 40.5212 16.6049C40.6861 16.7623 40.8805 16.8855 41.0932 16.9678C41.3058 17.0501 41.5326 17.0896 41.7605 17.0842C41.9885 17.0789 42.2132 17.0291 42.4217 16.9369C42.6303 16.8447 42.8186 16.7123 42.976 16.5473C43.1334 16.3823 43.2568 16.1879 43.3391 15.9753C43.5643 15.3925 43.8224 14.7979 44.1182 14.2003C44.6935 13.0368 45.3858 12.005 46.0964 11.3209C46.3514 11.0824 46.5285 10.7721 46.6045 10.4313C46.6804 10.0905 46.6517 9.73466 46.5222 9.4104C46.3926 9.08613 46.1682 8.80856 45.8783 8.61392C45.5884 8.41928 45.2465 8.31679 44.8973 8.31964ZM40.5817 18.8478C40.1229 18.8497 39.6835 19.0334 39.3597 19.3585C39.0359 19.6835 38.8541 20.1234 38.8541 20.5822C38.8529 20.6689 38.8471 20.7524 38.8471 20.8253C38.8439 21.0551 38.8863 21.2831 38.972 21.4964C39.0577 21.7097 39.185 21.9039 39.3464 22.0676C39.5077 22.2313 39.7 22.3613 39.9121 22.45C40.1241 22.5387 40.3517 22.5842 40.5815 22.5842C40.8114 22.5842 41.0389 22.5387 41.2509 22.45C41.463 22.3613 41.6553 22.2313 41.8167 22.0676C41.978 21.9039 42.1053 21.7097 42.191 21.4964C42.2767 21.2831 42.3191 21.0551 42.3159 20.8253C42.3159 20.7524 42.3218 20.6865 42.3228 20.6275C42.3291 20.3953 42.2887 20.1638 42.2039 19.9475C42.1192 19.7311 41.9918 19.5344 41.8294 19.3682C41.667 19.2021 41.4729 19.0701 41.2585 18.9804C41.0442 18.8907 40.814 18.8447 40.5817 18.8457V18.8478Z" fill="#02020C"/>
</svg>
