<svg width="75" height="90" viewBox="0 0 75 90" fill="none" xmlns="http://www.w3.org/2000/svg">
<path d="M17.4028 15.9733L11.3483 43.0735V68.456H63.6518V43.0735L57.5971 15.9733C55.7123 7.53699 48.2256 1.53834 39.5812 1.53834H35.4187C26.7744 1.53834 19.2877 7.53699 17.4028 15.9733Z" fill="#B6B6B6"/>
<path d="M17.4028 15.9733L11.3483 43.0735V68.456H63.6518L60.5751 55.3802L50.9594 13.4808C49.3557 6.49213 43.1362 1.53834 35.9658 1.53834H35.4187C26.7744 1.53834 19.2877 7.53699 17.4028 15.9733Z" fill="#FFBE1D"/>
<path d="M52.8834 87.6852H22.1167C11.9214 87.6852 3.65656 79.4203 3.65656 69.2252V36.2403C3.65656 34.6862 5.69841 34.1124 6.50802 35.4391L21.5365 60.0644C22.0963 60.9814 23.3997 61.057 24.0615 60.2105L36.288 44.5737C36.904 43.7859 38.096 43.7859 38.7119 44.5737L50.9384 60.2105C51.6003 61.057 52.9038 60.9814 53.4634 60.0644L68.492 35.4391C69.3016 34.1124 71.3435 34.6862 71.3435 36.2403V69.2252C71.3435 79.4203 63.0786 87.6852 52.8834 87.6852Z" fill="#FFBE1D"/>
<path d="M43.6534 87.6852H22.1167C11.9214 87.6852 3.65656 79.4203 3.65656 69.2252V36.2403C3.65656 34.6862 5.69841 34.1124 6.50802 35.4391L21.5365 60.0644C22.0963 60.9814 23.3997 61.057 24.0615 60.2105L36.288 44.5737C36.904 43.7859 38.096 43.7859 38.7119 44.5737L50.949 60.2242C51.608 61.0668 52.9044 60.9964 53.4682 60.0875L59.2677 50.7376C60.084 49.4218 62.1135 50.0002 62.1135 51.5485V69.2252C62.1135 79.4203 53.8486 87.6852 43.6534 87.6852Z" fill="#FFBE1D"/>
<path d="M66.273 13.1333L57.4983 17.6599L61.0607 32.3049L72.0719 20.9441C73.4874 19.4836 73.8604 17.3038 73.0115 15.4559C71.8381 12.9022 68.7704 11.8449 66.273 13.1333Z" fill="#C2A25A"/>
<path d="M8.72718 13.1333L17.5017 17.6599L13.9393 32.3049L2.92804 20.9441C1.5126 19.4836 1.13948 17.3038 1.98862 15.4559C3.16195 12.9022 6.22957 11.8449 8.72718 13.1333Z" fill="#FFBE1D"/>
<path fill-rule="evenodd" clip-rule="evenodd" d="M67.1788 34.6378C68.7981 31.9845 72.8818 33.1321 72.8818 36.2405V69.2252C72.8818 80.2701 63.9281 89.2236 52.8834 89.2236H22.1167C11.0718 89.2236 2.11823 80.2701 2.11823 69.2252V36.2405C2.11823 33.1321 6.20193 31.9845 7.82111 34.6378L22.8497 59.2631L35.0762 43.6261C36.308 42.0506 38.6919 42.0506 39.9237 43.6261L52.1504 59.2631L67.1788 34.6378ZM69.8052 36.2405L54.7766 60.8659C53.6572 62.7 51.0501 62.8509 49.7266 61.1581L37.5001 45.5213L25.2734 61.1581C23.9498 62.8509 21.3427 62.7 20.2234 60.8659L5.1949 36.2405V69.2252C5.1949 78.5708 12.7711 86.1469 22.1167 86.1469H52.8834C62.229 86.1469 69.8052 78.5708 69.8052 69.2252V36.2405Z" fill="#240000"/>
<path fill-rule="evenodd" clip-rule="evenodd" d="M35.4189 3.07668C27.4949 3.07668 20.6322 8.57544 18.9045 16.3087L12.8497 43.4088L9.84711 42.7381L15.9018 15.638C17.9436 6.49853 26.0543 0 35.4189 0H39.5814C48.9461 0 57.0568 6.49853 59.0985 15.638L65.1532 42.7381L62.1506 43.4088L56.0959 16.3087C54.3681 8.57544 47.5054 3.07668 39.5814 3.07668H35.4189Z" fill="#240000"/>
<path d="M33.0497 27.6872L33.0702 28.2625C33.0895 28.8013 33.5321 29.2284 34.0713 29.2284H40.9286C41.468 29.2284 41.9105 28.8013 41.9297 28.2625L41.9503 27.6872C42.0403 25.167 40.0218 23.0751 37.5001 23.0751C34.9783 23.0751 32.9597 25.167 33.0497 27.6872Z" fill="#DC1C4B"/>
<path fill-rule="evenodd" clip-rule="evenodd" d="M37.5 23.6134C35.8494 23.6134 34.5282 24.9827 34.5872 26.6322L34.5891 26.6901H40.411L40.4131 26.6322C40.4719 24.9827 39.1507 23.6134 37.5 23.6134ZM31.5124 26.742C31.3913 23.3513 34.1072 20.5367 37.5 20.5367C40.8929 20.5367 43.6088 23.3513 43.4876 26.742L43.4671 27.3173C43.4184 28.684 42.2962 29.7668 40.9288 29.7668H34.0715C32.7039 29.7668 31.5817 28.684 31.533 27.3173L31.5124 26.742Z" fill="#240000"/>
<path d="M31.3467 15.3834C31.3467 17.0827 29.9691 18.4601 28.27 18.4601C26.5708 18.4601 25.1934 17.0827 25.1934 15.3834C25.1934 13.6842 26.5708 12.3067 28.27 12.3067C29.9691 12.3067 31.3467 13.6842 31.3467 15.3834ZM49.8068 15.3834C49.8068 17.0827 48.4292 18.4601 46.7301 18.4601C45.0308 18.4601 43.6534 17.0827 43.6534 15.3834C43.6534 13.6842 45.0308 12.3067 46.7301 12.3067C48.4292 12.3067 49.8068 13.6842 49.8068 15.3834Z" fill="#240000"/>
<path fill-rule="evenodd" clip-rule="evenodd" d="M0.590819 14.8136C2.13037 11.4629 6.15541 10.0757 9.43251 11.7662L18.207 16.2929L16.7965 19.0271L8.02186 14.5005C6.30384 13.6142 4.19362 14.3415 3.3865 16.0981C2.80239 17.3694 3.05906 18.8689 4.03273 19.8734L15.044 31.2344L12.8347 33.3756L1.82347 22.0148C-0.0337462 20.0986 -0.523341 17.2384 0.590819 14.8136ZM74.4092 14.8136C72.8695 11.4629 68.8446 10.0757 65.5676 11.7662L56.7929 16.2929L58.2034 19.0271L66.9781 14.5005C68.6962 13.6142 70.8064 14.3415 71.6135 16.0981C72.1976 17.3694 71.9409 18.8689 70.9672 19.8734L59.9559 31.2344L62.1654 33.3756L73.1764 22.0148C75.0338 20.0986 75.5233 17.2384 74.4092 14.8136Z" fill="#240000"/>
<path fill-rule="evenodd" clip-rule="evenodd" d="M11.3483 56.9185C12.1979 56.9185 12.8867 57.6073 12.8867 58.4568V67.6869C12.8867 73.6341 17.7078 78.4552 23.655 78.4552H25.1934C26.0429 78.4552 26.7317 79.144 26.7317 79.9936C26.7317 80.8431 26.0429 81.5319 25.1934 81.5319H23.655C16.0085 81.5319 9.80998 75.3334 9.80998 67.6869V58.4568C9.80998 57.6073 10.4986 56.9185 11.3483 56.9185Z" fill="white"/>
</svg>
