<svg width="98" height="98" viewBox="0 0 98 98" fill="none" xmlns="http://www.w3.org/2000/svg">
<path d="M51.0417 42.875C51.0417 29.3388 40.0779 6.125 26.5417 6.125C13.0054 6.125 2.04166 29.3388 2.04166 42.875C2.04166 49.3728 4.6229 55.6045 9.21754 60.1991C13.8122 64.7938 20.0439 67.375 26.5417 67.375C33.0395 67.375 39.2711 64.7938 43.8658 60.1991C48.4604 55.6045 51.0417 49.3728 51.0417 42.875Z" fill="#FFBE1D"/>
<path d="M95.9583 42.875C95.9583 29.3388 84.9742 6.125 71.4583 6.125C57.9425 6.125 46.9583 29.3388 46.9583 42.875C46.9583 49.3728 49.5396 55.6045 54.1342 60.1991C58.7289 64.7938 64.9605 67.375 71.4583 67.375C77.9561 67.375 84.1878 64.7938 88.7825 60.1991C93.3771 55.6045 95.9583 49.3728 95.9583 42.875Z" fill="#FFBE1D"/>
<path d="M73.5 49C73.5 35.4638 62.5363 12.25 49 12.25C35.4637 12.25 24.5 35.4638 24.5 49C24.5 55.4978 27.0812 61.7295 31.6759 66.3241C36.2705 70.9188 42.5022 73.5 49 73.5C55.4978 73.5 61.7295 70.9188 66.3241 66.3241C70.9188 61.7295 73.5 55.4978 73.5 49Z" fill="#FFBE1D"/>
<path d="M95.9583 51.0417V91.875L91.875 89.8333L87.7917 91.875L83.7083 89.8333L79.625 91.875L75.5417 89.8333L71.4583 91.875L67.375 89.8333L63.2917 91.875V51.0417H95.9583Z" fill="white"/>
<path d="M98 42.875C98 21.9479 76.8892 -11.5558 56.6358 12.25C54.3268 10.8623 51.6837 10.1291 48.9898 10.1291C46.2959 10.1291 43.6527 10.8623 41.3438 12.25C36.75 6.96209 31.6867 4.08334 26.5417 4.08334C11.6783 4.08334 0 28.2158 0 42.875C0.000261143 46.7808 0.862534 50.6384 2.5253 54.1725C4.18806 57.7067 6.61033 60.8303 9.61929 63.3205C12.6282 65.8108 16.1497 67.6062 19.9325 68.5788C23.7152 69.5514 27.666 69.6772 31.5029 68.9471C35.5225 72.4724 40.513 74.7017 45.8209 75.3428C51.1288 75.984 56.5066 75.0072 61.25 72.5404V95.1825L67.375 92.12L71.4583 94.1617L75.5417 92.12L79.625 94.1617L83.7083 92.12L87.7917 94.1617L91.875 92.12L98 95.1825V49C96.3667 49 98 49.6329 98 42.875ZM4.08333 42.875C4.08333 27.5625 20.2942 -5.65541 37.9546 14.6796C28.9304 22.2338 22.4583 38.1179 22.4583 49C22.4349 54.9183 24.4056 60.6721 28.0525 65.3333C24.9786 65.5406 21.895 65.1132 18.9934 64.0777C16.0918 63.0423 13.4343 61.4209 11.1861 59.3144C8.9379 57.2079 7.14716 54.6614 5.92524 51.8333C4.70332 49.0051 4.07635 45.9558 4.08333 42.875ZM26.5417 49C26.5417 38.1587 34.0958 20.6208 43.8754 15.6392C58.0242 8.16667 71.4583 34.3 71.4583 49H61.25V67.8242C57.8606 70.0299 53.9385 71.2796 49.8979 71.4413C45.8572 71.603 41.8478 70.6706 38.293 68.7427C34.7382 66.8147 31.77 63.9627 29.7016 60.4878C27.6332 57.0129 26.5415 53.0439 26.5417 49ZM93.9167 88.5675L91.875 87.5467L87.7917 89.5883L83.7083 87.5467L79.625 89.5883L75.5417 87.5467L71.4583 89.5883L67.375 87.5467L65.3333 88.5675V53.0833H93.9167V88.5675ZM75.5417 49C75.5417 35.7904 66.4767 18.9875 60.025 14.6796C63.6796 10.4942 67.6813 8.16667 71.4583 8.16667C84.7292 8.16667 97.0608 35.3821 93.0592 49H75.5417Z" fill="black"/>
<path d="M82.4297 77L81.6016 74.2812H77.4375L76.6094 77H74L78.0312 65.5312H80.9922L85.0391 77H82.4297ZM81.0234 72.25C80.2578 69.7865 79.8255 68.3932 79.7266 68.0703C79.6328 67.7474 79.5651 67.4922 79.5234 67.3047C79.3516 67.9714 78.8594 69.6198 78.0469 72.25H81.0234Z" fill="#FFBE1D"/>
</svg>
